<svg xmlns="http://www.w3.org/2000/svg" viewBox="0 0 400 300">
<defs>
<linearGradient id="bg4" x1="0" y1="0" x2="0" y2="1"><stop offset="0%" stop-color="#f8fafc"/><stop offset="100%" stop-color="#e2e8f0"/></linearGradient>
<linearGradient id="hs" x1="0" y1="0" x2="1" y2="1"><stop offset="0%" stop-color="#1a1a2e"/><stop offset="100%" stop-color="#0f0f1a"/></linearGradient>
<linearGradient id="gld3" x1="0" y1="0" x2="1" y2="0"><stop offset="0%" stop-color="#c9a96e"/><stop offset="100%" stop-color="#a08020"/></linearGradient>
</defs>
<rect width="400" height="300" rx="12" fill="url(#bg4)"/>
<text x="200" y="35" font-family="Arial" font-size="16" font-weight="bold" fill="#1a365d" text-anchor="middle">ORION M100 DDR5 Memory</text>
<text x="200" y="55" font-family="Arial" font-size="11" fill="#6b7280" text-anchor="middle">Desktop UDIMM | Black 10-Layer PCB</text>
<rect x="50" y="70" width="300" height="30" rx="4" fill="url(#gld3)"/>
<text x="200" y="89" font-family="Arial" font-size="10" font-weight="bold" fill="#fff" text-anchor="middle" letter-spacing="3">ORION DDR5</text>
<rect x="55" y="100" width="290" height="90" rx="2" fill="url(#hs)"/>
<rect x="55" y="100" width="290" height="10" rx="2" fill="#c9a96e" opacity="0.3"/>
<rect x="60" y="115" width="55" height="55" rx="2" fill="#1a1a3e"/><text x="87" y="149" font-family="Arial" font-size="7" fill="#7c7caa" text-anchor="middle">DDR5<br/>IC</text>
<rect x="125" y="115" width="55" height="55" rx="2" fill="#1a1a3e"/><text x="152" y="149" font-family="Arial" font-size="7" fill="#7c7caa" text-anchor="middle">DDR5<br/>IC</text>
<rect x="190" y="115" width="55" height="55" rx="2" fill="#1a1a3e"/><text x="217" y="149" font-family="Arial" font-size="7" fill="#7c7caa" text-anchor="middle">DDR5<br/>IC</text>
<rect x="255" y="115" width="55" height="55" rx="2" fill="#1a1a3e"/><text x="282" y="149" font-family="Arial" font-size="7" fill="#7c7caa" text-anchor="middle">DDR5<br/>IC</text>
<rect x="180" y="115" width="40" height="55" rx="2" fill="#c9a96e" opacity="0.15"/>
<rect x="50" y="195" width="300" height="18" rx="2" fill="#d4a800"/>
<rect x="85" y="213" width="230" height="10" rx="1" fill="#d4a800"/>
<rect x="50" y="225" width="300" height="1" fill="#cbd5e1"/>
<text x="200" y="243" font-family="Arial" font-size="12" font-weight="bold" fill="#1a365d" text-anchor="middle">DDR5-6000 | CL30-36-36 | 10-Layer PCB</text>
<text x="200" y="260" font-family="Arial" font-size="10" fill="#6b7280" text-anchor="middle">32GB (2x16GB) Kit | 1.1V | XMP 3.0 Ready</text>
<text x="200" y="275" font-family="Arial" font-size="10" fill="#6b7280" text-anchor="middle">Compatible with Intel & AMD Platforms</text>
</svg>

