<svg xmlns="http://www.w3.org/2000/svg" viewBox="0 0 400 280"><defs><linearGradient id="bg" x1="0" y1="0" x2="0" y2="1"><stop offset="0%" stop-color="#f8fafc"/><stop offset="100%" stop-color="#e2e8f0"/></linearGradient><linearGradient id="pcb" x1="0" y1="0" x2="1" y2="1"><stop offset="0%" stop-color="#1a365d"/><stop offset="100%" stop-color="#0f2440"/></linearGradient><linearGradient id="gold" x1="0" y1="0" x2="1" y2="0"><stop offset="0%" stop-color="#c9a96e"/><stop offset="100%" stop-color="#b8860b"/></linearGradient></defs><rect width="400" height="280" rx="12" fill="url(#bg)"/><rect x="30" y="70" width="340" height="100" rx="4" fill="url(#pcb)"/><rect x="30" y="70" width="340" height="22" rx="4" fill="url(#gold)"/><text x="200" y="85" font-family="Arial" font-size="12" font-weight="bold" fill="#fff" text-anchor="middle" letter-spacing="2">ORION M100 DDR5 SSD</text><rect x="50" y="100" width="50" height="55" rx="3" fill="#0d1f33"/><text x="75" y="133" font-size="7" fill="#6b8cae" text-anchor="middle">CTRL</text><rect x="115" y="100" width="75" height="55" rx="3" fill="#0d1f33"/><text x="152" y="133" font-size="7" fill="#6b8cae" text-anchor="middle">NAND</text><rect x="205" y="100" width="75" height="55" rx="3" fill="#0d1f33"/><text x="242" y="133" font-size="7" fill="#6b8cae" text-anchor="middle">NAND</text><rect x="295" y="100" width="60" height="55" rx="3" fill="#0d1f33"/><text x="325" y="133" font-size="7" fill="#6b8cae" text-anchor="middle">NAND</text><rect x="30" y="185" width="340" height="1" fill="#cbd5e1"/><text x="200" y="205" font-size="11" font-weight="bold" fill="#1a365d" text-anchor="middle">DDR5-6000 Desktop Memory</text><text x="200" y="222" font-size="10" fill="#6b7280" text-anchor="middle">32GB (2x16GB) | CL30 | 1.1V</text><text x="200" y="239" font-size="10" fill="#6b7280" text-anchor="middle">256GB - 2TB | 3-Year Warranty</text></svg>
