<svg xmlns="http://www.w3.org/2000/svg" viewBox="0 0 400 280"><defs><linearGradient id="b" x1="0" y1="0" x2="0" y2="1"><stop offset="0%" stop-color="#f5f7fa"/><stop offset="100%" stop-color="#e4e7ed"/></linearGradient><linearGradient id="h" x1="0" y1="0" x2="1" y2="1"><stop offset="0%" stop-color="#1a1a2e"/><stop offset="100%" stop-color="#0f0f1a"/></linearGradient><linearGradient id="g" x1="0" y1="0" x2="1" y2="0"><stop offset="0%" stop-color="#d4af37"/><stop offset="100%" stop-color="#b8960c"/></linearGradient><filter id="s"><feDropShadow dx="0" dy="4" stdDeviation="6" flood-opacity="0.15"/></filter></defs><rect width="400" height="280" rx="12" fill="url(#b)"/><rect x="50" y="55" width="300" height="28" rx="3" fill="url(#g)" filter="url(#s)"/><text x="200" y="73" font-family="Arial" font-size="11" font-weight="700" fill="#fff" text-anchor="middle" letter-spacing="4">ORION DDR5</text><rect x="55" y="83" width="290" height="90" rx="3" fill="url(#h)"/><rect x="55" y="173" width="290" height="16" rx="1" fill="#d4a800"/><rect x="140" y="83" width="120" height="90" rx="3" fill="#c9a96e" opacity="0.06"/><rect x="175" y="83" width="50" height="90" rx="3" fill="#c9a96e" opacity="0.12"/><text x="200" y="108" font-family="Arial" font-size="9" font-weight="700" fill="#7c7caa" text-anchor="middle">ORION</text><text x="200" y="124" font-family="Arial" font-size="8" fill="#7c7caa" text-anchor="middle">DDR5 16GB 5600MHz</text><rect x="65" y="92" width="40" height="60" rx="2" fill="#222"/><text x="85" y="126" font-family="Arial" font-size="6" fill="#555" text-anchor="middle">IC</text><rect x="115" y="92" width="40" height="60" rx="2" fill="#222"/><text x="135" y="126" font-family="Arial" font-size="6" fill="#555" text-anchor="middle">IC</text><rect x="245" y="92" width="40" height="60" rx="2" fill="#222"/><text x="265" y="126" font-family="Arial" font-size="6" fill="#555" text-anchor="middle">IC</text><rect x="295" y="92" width="40" height="60" rx="2" fill="#222"/><text x="315" y="126" font-family="Arial" font-size="6" fill="#555" text-anchor="middle">IC</text><rect x="55" y="200" width="290" height="1" fill="#d0d5dd"/><text x="200" y="220" font-family="Arial" font-size="13" font-weight="700" fill="#1a365d" text-anchor="middle">DDR5 Desktop Memory Module</text><text x="200" y="238" font-family="Arial" font-size="10" fill="#6b7280" text-anchor="middle">DDR5-5600/6000 | CL30-36 | Intel &amp; AMD</text><text x="200" y="255" font-family="Arial" font-size="10" fill="#9ca3af" text-anchor="middle">8GB · 16GB · 32GB per module | OEM/ODM</text></svg>
