<svg xmlns="http://www.w3.org/2000/svg" viewBox="0 0 400 280"><defs><linearGradient id="a" x1="0" y1="0" x2="0" y2="1"><stop offset="0%" stop-color="#f8fafc"/><stop offset="100%" stop-color="#e2e8f0"/></linearGradient><linearGradient id="h" x1="0" y1="0" x2="1" y2="1"><stop offset="0%" stop-color="#1a1a2e"/><stop offset="100%" stop-color="#0f0f1a"/></linearGradient><linearGradient id="g" x1="0" y1="0" x2="1" y2="0"><stop offset="0%" stop-color="#c9a96e"/><stop offset="100%" stop-color="#a08020"/></linearGradient></defs><rect width="400" height="280" rx="12" fill="url(#a)"/><text x="200" y="30" font-family="Arial" font-size="14" font-weight="700" fill="#1a365d" text-anchor="middle">ORION M100 DDR5 Memory</text><text x="200" y="48" font-family="Arial" font-size="10" fill="#6b7280" text-anchor="middle">Desktop DIMM | Black 10-Layer PCB</text><rect x="50" y="62" width="300" height="28" rx="3" fill="url(#g)"/><text x="200" y="80" font-family="Arial" font-size="10" font-weight="700" fill="#fff" text-anchor="middle" letter-spacing="3">ORION DDR5</text><rect x="55" y="90" width="290" height="80" rx="2" fill="url(#h)"/><rect x="55" y="170" width="290" height="16" rx="1" fill="#d4a800"/><rect x="60" y="100" width="50" height="55" rx="2" fill="#222"/><text x="85" y="132" font-family="Arial" font-size="6.5" fill="#7c7caa" text-anchor="middle">DDR5<br/>IC</text><rect x="120" y="100" width="50" height="55" rx="2" fill="#222"/><text x="145" y="132" font-family="Arial" font-size="6.5" fill="#7c7caa" text-anchor="middle">DDR5<br/>IC</text><rect x="180" y="100" width="50" height="55" rx="2" fill="#222"/><text x="205" y="132" font-family="Arial" font-size="6.5" fill="#7c7caa" text-anchor="middle">DDR5<br/>IC</text><rect x="240" y="100" width="50" height="55" rx="2" fill="#222"/><text x="265" y="132" font-family="Arial" font-size="6.5" fill="#7c7caa" text-anchor="middle">DDR5<br/>IC</text><rect x="140" y="100" width="120" height="55" rx="2" fill="#c9a96e" opacity="0.08"/><rect x="175" y="100" width="50" height="55" rx="2" fill="#c9a96e" opacity="0.15"/><rect x="55" y="198" width="290" height="1" fill="#cbd5e1"/><text x="200" y="218" font-family="Arial" font-size="12" font-weight="700" fill="#1a365d" text-anchor="middle">DDR5-6000 | CL30 | 32GB Kit | 1.1V</text><text x="200" y="236" font-family="Arial" font-size="10" fill="#6b7280" text-anchor="middle">Intel &amp; AMD Compatible | XMP 3.0</text><rect x="100" y="250" width="200" height="2" rx="1" fill="#1a365d"/></svg>
