<svg xmlns="http://www.w3.org/2000/svg" viewBox="0 0 400 280"><defs><linearGradient id="a" x1="0" y1="0" x2="0" y2="1"><stop offset="0%" stop-color="#f8fafc"/><stop offset="100%" stop-color="#e2e8f0"/></linearGradient><linearGradient id="b" x1="0" y1="0" x2="1" y2="1"><stop offset="0%" stop-color="#1a1a1a"/><stop offset="100%" stop-color="#0a0a0a"/></linearGradient><linearGradient id="g" x1="0" y1="0" x2="1" y2="0"><stop offset="0%" stop-color="#c9a96e"/><stop offset="100%" stop-color="#a08020"/></linearGradient></defs><rect width="400" height="280" rx="12" fill="url(#a)"/><text x="200" y="30" font-family="Arial" font-size="14" font-weight="700" fill="#1a365d" text-anchor="middle">ORION E100 NVMe SSD</text><text x="200" y="48" font-family="Arial" font-size="10" fill="#6b7280" text-anchor="middle">M.2 2280 | Black 10-Layer PCB</text><rect x="20" y="65" width="360" height="95" rx="4" fill="url(#b)"/><rect x="20" y="65" width="360" height="18" rx="4" fill="url(#g)"/><text x="200" y="78" font-family="Arial" font-size="10" font-weight="700" fill="#fff" text-anchor="middle" letter-spacing="3">ORION</text><rect x="20" y="83" width="35" height="77" rx="2" fill="#d4a800"/><rect x="75" y="90" width="50" height="55" rx="2" fill="#222"/><text x="100" y="121" font-family="Arial" font-size="6.5" fill="#888" text-anchor="middle">Ctrl</text><rect x="135" y="90" width="60" height="55" rx="2" fill="#222"/><text x="165" y="121" font-family="Arial" font-size="6.5" fill="#888" text-anchor="middle">NAND</text><rect x="205" y="90" width="60" height="55" rx="2" fill="#222"/><text x="235" y="121" font-family="Arial" font-size="6.5" fill="#888" text-anchor="middle">NAND</text><rect x="275" y="90" width="55" height="55" rx="2" fill="#222"/><text x="302" y="121" font-family="Arial" font-size="6.5" fill="#888" text-anchor="middle">DRAM</text><rect x="345" y="90" width="25" height="55" rx="2" fill="#222"/><text x="357" y="121" font-family="Arial" font-size="5" fill="#888" text-anchor="middle">EEP</text><rect x="20" y="172" width="360" height="1" fill="#cbd5e1"/><text x="200" y="192" font-family="Arial" font-size="12" font-weight="700" fill="#1a365d" text-anchor="middle">PCIe 4.0 x4 | Up to 7,000MB/s Read</text><text x="200" y="210" font-family="Arial" font-size="10" fill="#6b7280" text-anchor="middle">256GB / 512GB / 1TB / 2TB | OEM Available</text><rect x="100" y="230" width="200" height="32" rx="16" fill="#1a365d"/><text x="200" y="250" font-family="Arial" font-size="11" font-weight="700" fill="#fff" text-anchor="middle">Inquire for OEM/ODM Pricing</text></svg>
