<svg xmlns="http://www.w3.org/2000/svg" viewBox="0 0 400 280"><defs><linearGradient id="b" x1="0" y1="0" x2="0" y2="1"><stop offset="0%" stop-color="#f5f7fa"/><stop offset="100%" stop-color="#e4e7ed"/></linearGradient><linearGradient id="p" x1="0" y1="0" x2="1" y2="1"><stop offset="0%" stop-color="#1c1c1c"/><stop offset="100%" stop-color="#0d0d0d"/></linearGradient><linearGradient id="g" x1="0" y1="0" x2="1" y2="0"><stop offset="0%" stop-color="#d4af37"/><stop offset="100%" stop-color="#b8960c"/></linearGradient><filter id="s"><feDropShadow dx="0" dy="4" stdDeviation="6" flood-opacity="0.15"/></filter></defs><rect width="400" height="280" rx="12" fill="url(#b)"/><rect x="25" y="65" width="350" height="95" rx="4" fill="url(#p)" filter="url(#s)"/><rect x="25" y="160" width="350" height="3" fill="#0a0a0a"/><rect x="25" y="65" width="40" height="95" rx="4" fill="url(#g)"/><rect x="25" y="65" width="350" height="22" rx="4" fill="url(#g)"/><text x="200" y="80" font-family="Arial" font-size="11" font-weight="700" fill="#fff" text-anchor="middle" letter-spacing="4">ORION</text><text x="200" y="100" font-family="Arial" font-size="7" fill="#888" text-anchor="middle">ORION E100 NVMe 1TB</text><rect x="80" y="100" width="45" height="50" rx="2" fill="#222"/><text x="102" y="128" font-family="Arial" font-size="6" fill="#666" text-anchor="middle">CTRL</text><rect x="135" y="100" width="60" height="50" rx="2" fill="#222"/><text x="165" y="128" font-family="Arial" font-size="6" fill="#666" text-anchor="middle">NAND</text><rect x="205" y="100" width="60" height="50" rx="2" fill="#222"/><text x="235" y="128" font-family="Arial" font-size="6" fill="#666" text-anchor="middle">NAND</text><rect x="275" y="100" width="55" height="50" rx="2" fill="#222"/><text x="302" y="128" font-family="Arial" font-size="6" fill="#666" text-anchor="middle">DRAM</text><rect x="340" y="100" width="20" height="50" rx="2" fill="#222"/><rect x="25" y="175" width="350" height="1" fill="#d0d5dd"/><text x="200" y="195" font-family="Arial" font-size="13" font-weight="700" fill="#1a365d" text-anchor="middle">M.2 2280 NVMe SSD</text><text x="200" y="213" font-family="Arial" font-size="10" fill="#6b7280" text-anchor="middle">PCIe 4.0 | Read 7,000 MB/s | Write 6,000 MB/s</text><text x="200" y="230" font-family="Arial" font-size="10" fill="#9ca3af" text-anchor="middle">256GB · 512GB · 1TB · 2TB | OEM/ODM | MOQ: 200 pcs</text><rect x="100" y="245" width="200" height="22" rx="11" fill="#1a365d"/><text x="200" y="260" font-family="Arial" font-size="10" font-weight="700" fill="#fff" text-anchor="middle">Send Email for OEM Pricing</text></svg>
