<svg xmlns="http://www.w3.org/2000/svg" viewBox="0 0 400 280"><defs><linearGradient id="b" x1="0" y1="0" x2="0" y2="1"><stop offset="0%" stop-color="#f5f7fa"/><stop offset="100%" stop-color="#e4e7ed"/></linearGradient><linearGradient id="c" x1="0" y1="0" x2="1" y2="1"><stop offset="0%" stop-color="#2a2a2a"/><stop offset="100%" stop-color="#151515"/></linearGradient><linearGradient id="g" x1="0" y1="0" x2="1" y2="0"><stop offset="0%" stop-color="#d4af37"/><stop offset="100%" stop-color="#b8960c"/></linearGradient><filter id="s"><feDropShadow dx="0" dy="4" stdDeviation="6" flood-opacity="0.15"/></filter></defs><rect width="400" height="280" rx="12" fill="url(#b)"/><rect x="60" y="55" width="280" height="135" rx="6" fill="url(#c)" filter="url(#s)"/><rect x="60" y="55" width="280" height="22" rx="6" fill="url(#g)"/><text x="200" y="70" font-family="Arial" font-size="11" font-weight="700" fill="#fff" text-anchor="middle" letter-spacing="4">ORION SATA SSD</text><rect x="60" y="55" width="280" height="135" rx="6" fill="none" stroke="#111" stroke-width="1"/><rect x="285" y="82" width="45" height="40" rx="3" fill="#222"/><text x="307" y="105" font-family="Arial" font-size="6" fill="#666" text-anchor="middle">SATA</text><rect x="285" y="127" width="45" height="40" rx="3" fill="#222"/><text x="307" y="150" font-family="Arial" font-size="6" fill="#666" text-anchor="middle">PWR</text><rect x="80" y="85" width="55" height="50" rx="2" fill="#1a1a1a"/><text x="107" y="114" font-family="Arial" font-size="7" fill="#555" text-anchor="middle">Controller</text><rect x="145" y="85" width="60" height="50" rx="2" fill="#1a1a1a"/><text x="175" y="114" font-family="Arial" font-size="7" fill="#555" text-anchor="middle">NAND</text><rect x="215" y="85" width="60" height="50" rx="2" fill="#1a1a1a"/><text x="245" y="114" font-family="Arial" font-size="7" fill="#555" text-anchor="middle">NAND</text><circle cx="80" cy="180" r="3" fill="none" stroke="#333" stroke-width="1"/><circle cx="240" cy="180" r="3" fill="none" stroke="#333" stroke-width="1"/><circle cx="240" cy="65" r="3" fill="none" stroke="#333" stroke-width="1"/><circle cx="310" cy="180" r="3" fill="none" stroke="#333" stroke-width="1"/><rect x="60" y="202" width="280" height="1" fill="#d0d5dd"/><text x="200" y="222" font-family="Arial" font-size="13" font-weight="700" fill="#1a365d" text-anchor="middle">2.5-Inch SATA III SSD</text><text x="200" y="240" font-family="Arial" font-size="10" fill="#6b7280" text-anchor="middle">560 MB/s Read | 530 MB/s Write | OEM/ODM</text><text x="200" y="255" font-family="Arial" font-size="10" fill="#9ca3af" text-anchor="middle">120GB · 240GB · 480GB · 960GB · 1.92TB</text></svg>
