<svg xmlns="http://www.w3.org/2000/svg" viewBox="0 0 400 280"><defs><linearGradient id="a" x1="0" y1="0" x2="0" y2="1"><stop offset="0%" stop-color="#f8fafc"/><stop offset="100%" stop-color="#e2e8f0"/></linearGradient><linearGradient id="b" x1="0" y1="0" x2="1" y2="1"><stop offset="0%" stop-color="#222"/><stop offset="100%" stop-color="#111"/></linearGradient><linearGradient id="g" x1="0" y1="0" x2="1" y2="0"><stop offset="0%" stop-color="#c9a96e"/><stop offset="100%" stop-color="#a08020"/></linearGradient></defs><rect width="400" height="280" rx="12" fill="url(#a)"/><text x="200" y="30" font-family="Arial" font-size="14" font-weight="700" fill="#1a365d" text-anchor="middle">ORION S100 SATA SSD</text><text x="200" y="48" font-family="Arial" font-size="10" fill="#6b7280" text-anchor="middle">2.5-inch | Black | 10-Layer PCB</text><rect x="55" y="65" width="290" height="130" rx="6" fill="url(#b)"/><rect x="55" y="65" width="290" height="22" rx="6" fill="url(#g)"/><text x="200" y="80" font-family="Arial" font-size="10" font-weight="700" fill="#fff" text-anchor="middle" letter-spacing="3">ORION SATA SSD</text><rect x="285" y="92" width="50" height="45" rx="3" fill="#333"/><text x="310" y="115" font-family="Arial" font-size="6.5" fill="#888" text-anchor="middle">DATA</text><rect x="285" y="142" width="50" height="40" rx="3" fill="#333"/><text x="310" y="165" font-family="Arial" font-size="6.5" fill="#888" text-anchor="middle">PWR</text><rect x="75" y="95" width="50" height="50" rx="2" fill="#1a1a1a"/><text x="100" y="125" font-family="Arial" font-size="7" fill="#666" text-anchor="middle">Ctrl</text><rect x="135" y="95" width="65" height="50" rx="2" fill="#1a1a1a"/><text x="167" y="125" font-family="Arial" font-size="7" fill="#666" text-anchor="middle">NAND</text><rect x="210" y="95" width="65" height="50" rx="2" fill="#1a1a1a"/><text x="242" y="125" font-family="Arial" font-size="7" fill="#666" text-anchor="middle">NAND</text><rect x="55" y="208" width="290" height="1" fill="#cbd5e1"/><text x="200" y="228" font-family="Arial" font-size="12" font-weight="700" fill="#1a365d" text-anchor="middle">SATA III 6Gb/s | Up to 560MB/s Read</text><text x="200" y="246" font-family="Arial" font-size="10" fill="#6b7280" text-anchor="middle">120GB - 1.92TB | OEM/ODM</text><rect x="100" y="258" width="200" height="2" rx="1" fill="#1a365d"/></svg>
